<svg xmlns="http://www.w3.org/2000/svg" width="1440" height="900" viewBox="0 0 1440 900">
  <rect width="1440" height="900" fill="#f8f1e5"/><text x="70" y="78" fill="#241c17" font-family="Georgia" font-size="34" font-weight="700">ATLAS</text><g fill="#685d54" font-family="Arial" font-size="17"><text x="950" y="72">NEW IN</text><text x="1060" y="72">OBJECTS</text><text x="1184" y="72">STORIES</text><text x="1302" y="72">CART (2)</text></g>
  <rect x="54" y="112" width="1332" height="720" rx="24" fill="#d9b889"/><rect x="82" y="140" width="780" height="664" rx="18" fill="#c98c55"/><ellipse cx="474" cy="664" rx="250" ry="62" fill="#6f4a2f" opacity=".3"/><path d="M365 320h220l-36 324H400Z" fill="#f1e5ca"/><path d="M393 320c18-106 166-106 184 0" fill="none" stroke="#f1e5ca" stroke-width="34"/>
  <text x="925" y="238" fill="#503b2d" font-family="Arial" font-size="16" letter-spacing="4">THE FIELD COLLECTION</text><text x="925" y="320" fill="#241c17" font-family="Georgia" font-size="58">Made slowly.</text><text x="925" y="386" fill="#241c17" font-family="Georgia" font-size="58">Carried daily.</text><text x="925" y="454" fill="#655344" font-family="Arial" font-size="21">Natural materials, practical forms and</text><text x="925" y="486" fill="#655344" font-family="Arial" font-size="21">objects designed to age beautifully.</text><rect x="925" y="544" width="188" height="54" rx="27" fill="#241c17"/><text x="965" y="578" fill="#fff" font-family="Arial" font-size="18">Shop collection</text><text x="925" y="722" fill="#503b2d" font-family="Arial" font-size="17">Canvas Field Bag · Sienna</text><text x="925" y="756" fill="#241c17" font-family="Arial" font-size="20" font-weight="700">€148</text>
</svg>
