<svg xmlns="http://www.w3.org/2000/svg" width="1440" height="900" viewBox="0 0 1440 900">
  <rect width="1440" height="900" fill="#f4f6f2"/><rect x="0" width="250" height="900" fill="#e9eee5"/><text x="38" y="62" fill="#1b2b23" font-family="Arial" font-size="28" font-weight="700">lucid</text><g fill="#65756c" font-family="Arial" font-size="17"><text x="38" y="136">Search</text><text x="38" y="204">Inbox</text><text x="38" y="250">My drafts</text><text x="38" y="320">TEAMSPACES</text><text x="58" y="372">Product</text><text x="58" y="418">Marketing</text><text x="58" y="464">Company</text></g>
  <rect x="300" y="42" width="1090" height="816" rx="22" fill="#fff"/><text x="362" y="112" fill="#718078" font-family="Arial" font-size="16">Product / Launch plan</text><text x="362" y="188" fill="#17251e" font-family="Arial" font-size="48" font-weight="700">A calmer way to launch</text><text x="362" y="238" fill="#7a8880" font-family="Arial" font-size="19">Edited 4 minutes ago · 8 collaborators</text>
  <rect x="362" y="292" width="950" height="122" rx="18" fill="#eff7dc"/><text x="394" y="340" fill="#567122" font-family="Arial" font-size="16" font-weight="700">DECISION</text><text x="394" y="382" fill="#24351b" font-family="Arial" font-size="22">We ship the guided setup to everyone on September 18.</text>
  <text x="362" y="492" fill="#17251e" font-family="Arial" font-size="28" font-weight="700">What success looks like</text><g fill="#57665e" font-family="Arial" font-size="20"><text x="380" y="548">01  New users reach their first export in under three minutes.</text><text x="380" y="602">02  Templates explain the product before documentation is needed.</text><text x="380" y="656">03  Every team can adapt the launch without starting from zero.</text></g>
  <rect x="362" y="724" width="430" height="74" rx="14" fill="#192d23"/><text x="398" y="769" fill="#fff" font-family="Arial" font-size="19">Ready for review</text><circle cx="744" cy="761" r="20" fill="#d9ff83"/>
</svg>
